<?xml version="1.0" encoding="utf-8"?>
<!-- Generator: Adobe Illustrator 27.0.0, SVG Export Plug-In . SVG Version: 6.00 Build 0)  -->
<svg version="1.1" id="Layer_1" xmlns="http://www.w3.org/2000/svg" xmlns:xlink="http://www.w3.org/1999/xlink" x="0px" y="0px"
	 viewBox="0 0 445.3 361.8" style="enable-background:new 0 0 445.3 361.8;" xml:space="preserve">
<style type="text/css">
	.st0{fill:#58595B;}
	.st1{fill:#D2232A;}
	.st2{fill:#41AD49;}
</style>
<path class="st0" d="M408.9,243.3l18.6-38.3h-16.3l-5.6,13.1c-1,2.3-1.9,4.6-2.9,6.9c-1,2.3-1.6,4.7-1.8,7.3h-0.3
	c-0.1-1.8-0.4-3.5-0.9-5c-0.6-1.6-1.2-3.1-1.9-4.7l-7.9-17.6h-16.2l18.3,38.3l-19,39.3h15.8l6.4-14.3c1-2.3,2-4.7,3-7
	c1-2.3,1.6-4.8,2-7.4h0.2c0.6,3.3,1.6,6.6,3,9.8l8.3,18.9h16.5L408.9,243.3z M313.9,248.7c0,5.2,0.2,9.9,0.6,14.3s1.5,8.2,3.2,11.3
	c1.7,3.2,4.2,5.7,7.6,7.4c3.4,1.8,8,2.7,14,2.7c5.9,0,10.6-0.9,14-2.7c3.4-1.8,5.9-4.3,7.6-7.4c1.7-3.2,2.7-6.9,3.2-11.3
	c0.4-4.4,0.6-9.2,0.6-14.3v-11.1c-0.1-5-0.4-9.6-0.9-13.8c-0.5-4.2-1.6-7.8-3.3-10.9c-1.7-3.1-4.2-5.5-7.5-7.2s-7.9-2.6-13.7-2.6
	c-5.8,0-10.3,0.9-13.7,2.6s-5.8,4.1-7.5,7.2c-1.7,3.1-2.8,6.7-3.3,10.9c-0.5,4.2-0.8,8.8-0.9,13.8V248.7z M328.8,234.4
	c0-1.5,0-3.4,0.1-5.6c0-2.2,0.3-4.3,0.9-6.4c0.6-2.1,1.6-3.8,3.1-5.3c1.4-1.5,3.6-2.2,6.4-2.2c2.7,0,4.7,0.7,6.2,2.2
	c1.4,1.5,2.4,3.3,3.1,5.4c0.7,2.1,1,4.3,1.1,6.6c0.1,2.3,0.1,4.2,0.1,5.7v19.9c0,1.9-0.1,3.8-0.2,5.9c-0.1,2.1-0.5,4.1-1.2,5.9
	c-0.7,1.8-1.7,3.3-3.2,4.5c-1.4,1.2-3.4,1.8-5.9,1.8c-2.5,0-4.4-0.6-5.8-1.7c-1.4-1.1-2.5-2.6-3.1-4.3c-0.7-1.7-1.1-3.6-1.2-5.5
	c-0.2-2-0.3-3.7-0.3-5.3V234.4z M281.3,282.6c5.2,0,9.2-1.1,12.2-3.3c3-2.2,5.2-5.8,6.8-10.7c0.4-1.6,0.7-3.2,0.8-4.8
	c0.1-1.6,0.2-3.2,0.2-4.8c0-5-0.9-9.2-2.6-12.4c-1.7-3.2-4.6-5.1-8.7-5.6v-0.2c1.9-0.7,3.5-1.6,4.8-2.8c1.2-1.2,2.2-2.5,2.8-3.9
	c0.7-1.4,1.1-2.9,1.3-4.6c0.2-1.7,0.4-3.3,0.4-5c0-2.6-0.2-5.1-0.7-7.3c-0.4-2.3-1.5-4.5-3.2-6.6c-1-1.3-2.2-2.3-3.5-3.1
	c-1.3-0.8-2.6-1.3-4-1.7c-1.4-0.4-2.8-0.6-4.4-0.7c-1.6-0.1-3.1-0.2-4.6-0.2h-23.4v77.6H281.3z M270.2,271.2v-23.5h5.6
	c2.3,0,4.1,0.2,5.5,0.7c1.4,0.4,2.4,1.2,3.2,2.1c0.8,1,1.3,2.2,1.6,3.7c0.3,1.5,0.4,3.3,0.4,5.4c0,1-0.1,2-0.2,3.1
	c-0.1,1.1-0.3,2.1-0.6,3.1c-0.3,1-0.8,1.9-1.3,2.7c-0.6,0.8-1.4,1.4-2.3,1.9c-1.3,0.6-2.7,0.8-4.2,0.8h-4.4H270.2z M270.2,236.4v-20
	h6.7c3.3,0.1,5.4,0.9,6.4,2.4c1,1.4,1.4,3.6,1.4,6.5c0,1.9-0.1,3.5-0.3,4.9c-0.2,1.4-0.6,2.5-1.3,3.5c-1.2,1.4-2.7,2.3-4.7,2.4
	c-2,0.2-3.8,0.3-5.6,0.3H270.2z M244.7,282.6v-11.4h-26.9V205h-14.5v77.6H244.7z M138.4,248.7c0,5.2,0.2,9.9,0.6,14.3
	s1.5,8.2,3.2,11.3c1.7,3.2,4.2,5.7,7.6,7.4c3.4,1.8,8,2.7,14,2.7c5.9,0,10.6-0.9,14-2.7c3.4-1.8,5.9-4.3,7.6-7.4
	c1.7-3.2,2.7-6.9,3.2-11.3c0.4-4.4,0.6-9.2,0.6-14.3v-11.1c-0.1-5-0.4-9.6-0.9-13.8c-0.5-4.2-1.6-7.8-3.3-10.9
	c-1.7-3.1-4.2-5.5-7.5-7.2c-3.3-1.7-7.9-2.6-13.7-2.6s-10.3,0.9-13.7,2.6c-3.3,1.7-5.8,4.1-7.5,7.2c-1.7,3.1-2.8,6.7-3.3,10.9
	c-0.5,4.2-0.8,8.8-0.9,13.8V248.7z M153.3,234.4c0-1.5,0-3.4,0.1-5.6c0-2.2,0.3-4.3,0.9-6.4c0.6-2.1,1.6-3.8,3.1-5.3
	c1.4-1.5,3.6-2.2,6.4-2.2c2.7,0,4.7,0.7,6.2,2.2c1.4,1.5,2.4,3.3,3.1,5.4c0.7,2.1,1,4.3,1.1,6.6c0.1,2.3,0.1,4.2,0.1,5.7v19.9
	c0,1.9-0.1,3.8-0.2,5.9c-0.1,2.1-0.5,4.1-1.2,5.9c-0.7,1.8-1.7,3.3-3.2,4.5c-1.4,1.2-3.4,1.8-5.9,1.8c-2.5,0-4.4-0.6-5.8-1.7
	c-1.4-1.1-2.5-2.6-3.1-4.3c-0.7-1.7-1.1-3.6-1.2-5.5c-0.2-2-0.3-3.7-0.3-5.3V234.4z M74.1,248.7c0,5.2,0.2,9.9,0.6,14.3
	s1.5,8.2,3.2,11.3c1.7,3.2,4.2,5.7,7.6,7.4c3.4,1.8,8,2.7,14,2.7c5.9,0,10.6-0.9,14-2.7c3.4-1.8,5.9-4.3,7.6-7.4
	c1.7-3.2,2.7-6.9,3.2-11.3c0.4-4.4,0.6-9.2,0.6-14.3v-11.1c-0.1-5-0.4-9.6-0.9-13.8c-0.5-4.2-1.6-7.8-3.3-10.9s-4.2-5.5-7.5-7.2
	c-3.3-1.7-7.9-2.6-13.7-2.6s-10.3,0.9-13.7,2.6c-3.3,1.7-5.8,4.1-7.5,7.2s-2.8,6.7-3.3,10.9c-0.5,4.2-0.8,8.8-0.9,13.8V248.7z
	 M89,234.4c0-1.5,0-3.4,0.1-5.6c0-2.2,0.3-4.3,0.9-6.4c0.6-2.1,1.6-3.8,3.1-5.3c1.4-1.5,3.6-2.2,6.4-2.2c2.7,0,4.7,0.7,6.2,2.2
	c1.4,1.5,2.4,3.3,3.1,5.4c0.7,2.1,1,4.3,1.1,6.6c0.1,2.3,0.1,4.2,0.1,5.7v19.9c0,1.9-0.1,3.8-0.2,5.9c-0.1,2.1-0.5,4.1-1.2,5.9
	c-0.7,1.8-1.7,3.3-3.2,4.5c-1.4,1.2-3.4,1.8-5.9,1.8c-2.5,0-4.4-0.6-5.8-1.7c-1.4-1.1-2.4-2.6-3.1-4.3c-0.7-1.7-1.1-3.6-1.2-5.5
	c-0.2-2-0.3-3.7-0.3-5.3V234.4z M16.8,216.4h17v66.2h14.5v-66.2h16.9V205H16.8V216.4z"/>
<path class="st0" d="M379.2,179.2h40.6c3.9,0,7.1-3.1,7.1-7s-3.2-7.1-7.1-7.1h-32.8v-15.2h27.6c3.9,0,7.1-3.1,7.1-7
	c0-3.9-3.2-7.1-7.1-7.1h-27.6V121h32.3c3.9,0,7.1-3.1,7.1-7c0-3.9-3.2-7.1-7.1-7.1h-40.1c-4.4,0-8,3.5-8,8v56.5
	C371.3,175.7,374.8,179.2,379.2,179.2 M289.6,171.9c0,4.3,3.5,7.9,7.9,7.9s7.9-3.5,7.9-7.9v-38.8l31.9,41.8c2.2,2.8,4.4,4.7,8.3,4.7
	h0.5c4.4,0,8-3.5,8-8V114c0-4.3-3.5-7.9-7.9-7.9s-7.9,3.5-7.9,7.9v37.3L307.4,111c-2.2-2.8-4.4-4.7-8.3-4.7h-1.7c-4.4,0-8,3.5-8,8
	V171.9z M255.5,171.8c0,4.4,3.5,8,8,8c4.4,0,8-3.5,8-8v-57.7c0-4.4-3.5-8-8-8c-4.4,0-8,3.5-8,8V171.8z M190.8,171.2c0,4.4,3.5,8,8,8
	h37.4c4,0,7.2-3.2,7.2-7.2s-3.2-7.2-7.2-7.2h-29.5v-50.6c0-4.4-3.5-8-8-8s-8,3.5-8,8V171.2z M109.1,171.9c0,4.3,3.5,7.9,7.9,7.9
	s7.9-3.5,7.9-7.9v-38.8l31.9,41.8c2.2,2.8,4.4,4.7,8.3,4.7h0.5c4.4,0,8-3.5,8-8V114c0-4.3-3.5-7.9-7.9-7.9s-7.9,3.5-7.9,7.9v37.3
	L127,111c-2.2-2.8-4.4-4.7-8.3-4.7h-1.7c-4.4,0-8,3.5-8,8V171.9z M56.6,165.7c-12.8,0-21.9-10.3-21.9-22.8v-0.2
	c0-12.4,8.9-22.5,21.7-22.5s21.9,10.3,21.9,22.8v0.2C78.3,155.6,69.4,165.7,56.6,165.7 M56.4,180.4c22.3,0,38.6-16.9,38.6-37.4v-0.2
	c0-20.6-16-37.2-38.4-37.2S18,122.4,18,143v0.2C18,163.8,34,180.4,56.4,180.4"/>
<path class="st1" d="M310.1,86.1V68c0-20-16.2-36.2-36.2-36.2H170.5c-20,0-36.2,16.2-36.2,36.2v18.1h23.3V67.5
	c0-8.6,6.9-15.5,15.5-15.5h98.2c8.6,0,15.5,6.9,15.5,15.5v18.6H310.1z"/>
<path class="st2" d="M64.5,308.5c-5.7,0-10.3,4.6-10.3,10.3c0,5.7,4.6,10.3,10.3,10.3h320.6c5.7,0,10.3-4.6,10.3-10.3
	c0-5.7-4.6-10.3-10.3-10.3H64.5z"/>
</svg>
